<?xml version="1.0" encoding="iso-8859-1"?>
<!-- Uploaded to: SVG Repo, www.svgrepo.com, Generator: SVG Repo Mixer Tools -->
<!DOCTYPE svg PUBLIC "-//W3C//DTD SVG 1.1//EN" "http://www.w3.org/Graphics/SVG/1.1/DTD/svg11.dtd">
<svg fill="#000000" version="1.1" id="Capa_1" xmlns="http://www.w3.org/2000/svg" xmlns:xlink="http://www.w3.org/1999/xlink" 
	 width="800px" height="800px" viewBox="0 0 64.137 64.137"
	 xml:space="preserve">
<g>
	<g>
		<path d="M32.069,0C14.356,0,0,14.356,0,32.068c0,17.709,14.356,32.068,32.069,32.068c17.709,0,32.068-14.354,32.068-32.068
			C64.134,14.358,49.778,0,32.069,0z M50.116,42.19c0,1.651-1.355,3.007-3.012,3.007h-1.505v0.748h-3.007v-0.748H21.539v0.748
			h-3.006v-0.748h-1.507c-1.651,0-3.006-1.355-3.006-3.007V25.647c0-1.654,1.355-3.006,3.006-3.006h8.307v-1.999
			c0-1.345,1.104-2.45,2.45-2.45h8.568c1.351,0,2.45,1.105,2.45,2.45v1.999h8.306c1.655,0,3.011,1.353,3.011,3.006V42.19H50.116z"/>
		<rect x="26.557" y="19.964" width="11.022" height="2.677"/>
	</g>
</g>
</svg>